<svg width="20" height="21" viewBox="0 0 20 21" fill="none" xmlns="http://www.w3.org/2000/svg">
<path d="M7.98438 15.458L16.9844 6.45801L15.5781 5.00488L7.98438 12.5986L4.42188 9.03613L3.01562 10.4424L7.98438 15.458ZM2.92188 3.41113C4.89062 1.44238 7.25 0.458008 10 0.458008C12.75 0.458008 15.0938 1.44238 17.0312 3.41113C19 5.34863 19.9844 7.69238 19.9844 10.4424C19.9844 13.1924 19 15.5518 17.0312 17.5205C15.0938 19.458 12.75 20.4268 10 20.4268C7.25 20.4268 4.89062 19.458 2.92188 17.5205C0.984375 15.5518 0.015625 13.1924 0.015625 10.4424C0.015625 7.69238 0.984375 5.34863 2.92188 3.41113Z" fill="white"/>
</svg>
