<svg width="18" height="18" viewBox="0 0 18 18" fill="none" xmlns="http://www.w3.org/2000/svg">
<path d="M15.9844 0C16.5156 0 16.9844 0.203125 17.3906 0.609375C17.7969 1.01563 18 1.48438 18 2.01562V15.9844C18 16.5156 17.7969 16.9844 17.3906 17.3906C16.9844 17.7969 16.5156 18 15.9844 18H2.01562C1.45312 18 0.96875 17.8125 0.5625 17.4375C0.1875 17.0312 0 16.5469 0 15.9844V12H2.01562V15.9844H15.9844V2.01562H2.01562V6H0V2.01562C0 1.45312 0.1875 0.984375 0.5625 0.609375C0.96875 0.203125 1.45312 0 2.01562 0H15.9844ZM7.07812 12.6094L9.65625 9.98438H0V8.01562H9.65625L7.07812 5.39062L8.48438 3.98438L13.5 9L8.48438 14.0156L7.07812 12.6094Z" fill="#1F2041" fill-opacity="0.5"/>
</svg>
