<svg width="20" height="20" viewBox="0 0 20 20" fill="none" xmlns="http://www.w3.org/2000/svg">
<path d="M7.1875 5.17188C7.96875 4.39062 8.90625 4 10 4C11.0938 4 12.0312 4.39062 12.8125 5.17188C13.5938 5.95313 13.9844 6.89062 13.9844 7.98438C13.9844 8.82812 13.4844 9.70312 12.4844 10.6094C11.4844 11.4844 10.9844 12.2812 10.9844 13H9.01562C9.01562 12.2812 9.17188 11.6719 9.48438 11.1719C9.79688 10.6406 10.1406 10.2656 10.5156 10.0469C10.8906 9.79688 11.2344 9.5 11.5469 9.15625C11.8594 8.8125 12.0156 8.42188 12.0156 7.98438C12.0156 7.45312 11.8125 7 11.4062 6.625C11 6.21875 10.5312 6.01562 10 6.01562C9.46875 6.01562 9 6.21875 8.59375 6.625C8.1875 7 7.98438 7.45312 7.98438 7.98438H6.01562C6.01562 6.89062 6.40625 5.95313 7.1875 5.17188ZM4.32812 15.6719C5.92188 17.2344 7.8125 18.0156 10 18.0156C12.1875 18.0156 14.0625 17.2344 15.625 15.6719C17.2188 14.0781 18.0156 12.1875 18.0156 10C18.0156 7.8125 17.2188 5.9375 15.625 4.375C14.0625 2.78125 12.1875 1.98438 10 1.98438C7.8125 1.98438 5.92188 2.78125 4.32812 4.375C2.76562 5.9375 1.98438 7.8125 1.98438 10C1.98438 12.1875 2.76562 14.0781 4.32812 15.6719ZM2.92188 2.96875C4.89062 1 7.25 0.015625 10 0.015625C12.75 0.015625 15.0938 1 17.0312 2.96875C19 4.90625 19.9844 7.25 19.9844 10C19.9844 12.75 19 15.1094 17.0312 17.0781C15.0938 19.0156 12.75 19.9844 10 19.9844C7.25 19.9844 4.89062 19.0156 2.92188 17.0781C0.984375 15.1094 0.015625 12.75 0.015625 10C0.015625 7.25 0.984375 4.90625 2.92188 2.96875ZM9.01562 16V13.9844H10.9844V16H9.01562Z" fill="#1F2041" fill-opacity="0.5"/>
</svg>
