<svg width="20" height="19" viewBox="0 0 20 19" fill="none" xmlns="http://www.w3.org/2000/svg">
<path d="M17.5 0.252182C18.0312 0.252182 18.5 0.455307 18.9062 0.861557C19.3125 1.26781 19.5156 1.73656 19.5156 2.26781V16.2366C19.5156 16.7678 19.3125 17.2366 18.9062 17.6428C18.5 18.0491 18.0312 18.2522 17.5 18.2522H2.5C1.96875 18.2522 1.5 18.0491 1.09375 17.6428C0.6875 17.2366 0.484375 16.7678 0.484375 16.2366V2.26781C0.484375 1.73656 0.6875 1.26781 1.09375 0.861557C1.5 0.455307 1.96875 0.252182 2.5 0.252182H17.5ZM17.5 16.3303V2.26781H2.5V16.3303H17.5ZM15.0156 14.2678H13V10.2366H15.0156V14.2678ZM10.9844 14.2678H9.01562V4.23656H10.9844V14.2678ZM7 14.2678H4.98438V7.23656H7V14.2678Z" fill="#1F2041" fill-opacity="0.5"/>
</svg>
