<svg width="20" height="21" viewBox="0 0 20 21" fill="none" xmlns="http://www.w3.org/2000/svg">
<path d="M16 6.6852V4.66957H4V6.6852H16ZM16 9.6852V7.66957H4V9.6852H16ZM16 12.6852V10.6696H4V12.6852H16ZM18.0156 0.685196C18.5469 0.685196 19 0.888321 19.375 1.29457C19.7812 1.66957 19.9844 2.1227 19.9844 2.65395V14.6539C19.9844 15.1852 19.7812 15.6539 19.375 16.0602C19 16.4664 18.5469 16.6696 18.0156 16.6696H4L0.015625 20.6539V2.65395C0.015625 2.1227 0.203125 1.66957 0.578125 1.29457C0.984375 0.888321 1.45312 0.685196 1.98438 0.685196H18.0156Z" fill="#1F2041" fill-opacity="0.5"/>
</svg>
