<svg width="21" height="21" viewBox="0 0 21 21" fill="none" xmlns="http://www.w3.org/2000/svg">
<path d="M15.6094 17.4442C16.0156 17.0379 16.4844 16.8348 17.0156 16.8348C17.5469 16.8348 18 17.0379 18.375 17.4442C18.7812 17.8504 18.9844 18.3192 18.9844 18.8504C18.9844 19.3817 18.7812 19.8504 18.375 20.2567C18 20.6317 17.5469 20.8192 17.0156 20.8192C16.4844 20.8192 16.0156 20.6317 15.6094 20.2567C15.2031 19.8504 15 19.3817 15 18.8504C15 18.3192 15.2031 17.8504 15.6094 17.4442ZM0.984375 0.850403H4.26562L5.20312 2.81915H20.0156C20.2969 2.81915 20.5312 2.92853 20.7188 3.14728C20.9062 3.33478 21 3.56915 21 3.8504C21 3.88165 20.9531 4.0379 20.8594 4.31915L17.2969 10.7879C16.9219 11.4754 16.3438 11.8192 15.5625 11.8192H8.10938L7.21875 13.4598L7.17188 13.6004C7.17188 13.7567 7.25 13.8348 7.40625 13.8348H18.9844V15.8504H6.98438C6.45312 15.8504 5.98438 15.6473 5.57812 15.241C5.20312 14.8348 5.01562 14.366 5.01562 13.8348C5.01562 13.5223 5.09375 13.2098 5.25 12.8973L6.60938 10.4129L3 2.81915H0.984375V0.850403ZM5.57812 17.4442C5.98438 17.0379 6.45312 16.8348 6.98438 16.8348C7.51562 16.8348 7.98438 17.0379 8.39062 17.4442C8.79688 17.8504 9 18.3192 9 18.8504C9 19.3817 8.79688 19.8504 8.39062 20.2567C7.98438 20.6317 7.51562 20.8192 6.98438 20.8192C6.45312 20.8192 5.98438 20.6317 5.57812 20.2567C5.20312 19.8504 5.01562 19.3817 5.01562 18.8504C5.01562 18.3192 5.20312 17.8504 5.57812 17.4442Z" fill="#1F2041" fill-opacity="0.5"/>
</svg>
