
<svg version="1.0" xmlns="http://www.w3.org/2000/svg"
 width="1280.000000pt" height="975.000000pt" viewBox="0 0 1280.000000 975.000000"
 preserveAspectRatio="xMidYMid meet">
<g transform="translate(0.000000,975.000000) scale(0.100000,-0.100000)"
fill="#000000" stroke="none">
<path d="M12240 9735 c-30 -9 -72 -26 -95 -38 -22 -13 -1833 -1237 -4024
-2721 -2191 -1484 -3989 -2699 -3996 -2700 -8 0 -782 586 -1721 1304 -940 718
-1732 1317 -1761 1331 -162 83 -375 47 -508 -86 -130 -131 -171 -351 -94 -511
13 -27 852 -1417 1864 -3088 1410 -2329 1852 -3051 1892 -3093 33 -34 75 -65
117 -84 184 -86 370 -53 520 94 35 34 836 890 1778 1902 943 1012 2787 2990
4097 4395 1311 1405 2396 2575 2412 2600 56 86 73 145 73 255 -1 121 -22 185
-92 278 -82 106 -197 167 -332 173 -47 3 -95 -2 -130 -11z"/>
</g>
</svg>
