<svg width="12" height="12" viewBox="0 0 12 12" fill="none" xmlns="http://www.w3.org/2000/svg">
<path d="M4.03125 9.66406C4.72396 10.0286 5.38021 10.2109 6 10.2109C6.61979 10.2109 7.26693 10.0286 7.94141 9.66406C8.63411 9.29948 9.15365 8.85286 9.5 8.32422C9.48177 7.8138 9.07161 7.38542 8.26953 7.03906C7.46745 6.69271 6.71094 6.51953 6 6.51953C5.28906 6.51953 4.53255 6.69271 3.73047 7.03906C2.92839 7.36719 2.51823 7.79557 2.5 8.32422C2.84635 8.85286 3.35677 9.29948 4.03125 9.66406ZM7.23047 2.44531C6.88411 2.09896 6.47396 1.92578 6 1.92578C5.52604 1.92578 5.11589 2.09896 4.76953 2.44531C4.42318 2.79167 4.25 3.20182 4.25 3.67578C4.25 4.14974 4.42318 4.5599 4.76953 4.90625C5.11589 5.2526 5.52604 5.42578 6 5.42578C6.47396 5.42578 6.88411 5.2526 7.23047 4.90625C7.57682 4.5599 7.75 4.14974 7.75 3.67578C7.75 3.20182 7.57682 2.79167 7.23047 2.44531ZM1.87109 1.89844C3.01953 0.75 4.39583 0.175781 6 0.175781C7.60417 0.175781 8.97135 0.75 10.1016 1.89844C11.25 3.02865 11.8242 4.39583 11.8242 6C11.8242 7.60417 11.25 8.98047 10.1016 10.1289C8.97135 11.2591 7.60417 11.8242 6 11.8242C4.39583 11.8242 3.01953 11.2591 1.87109 10.1289C0.740885 8.98047 0.175781 7.60417 0.175781 6C0.175781 4.39583 0.740885 3.02865 1.87109 1.89844Z" fill="#878797"/>
</svg>
