<svg width="16" height="16" viewBox="0 0 16 16" fill="none" xmlns="http://www.w3.org/2000/svg">
<path d="M3.74609 12.2539C4.94141 13.4258 6.35938 14.0117 8 14.0117C9.64062 14.0117 11.0469 13.4258 12.2188 12.2539C13.4141 11.0586 14.0117 9.64062 14.0117 8C14.0117 7.48438 13.9297 6.92188 13.7656 6.3125C13.25 6.42969 12.6758 6.48828 12.043 6.48828C10.9648 6.48828 9.82812 6.18359 8.63281 5.57422C7.46094 4.94141 6.57031 4.19141 5.96094 3.32422C5.1875 5.19922 3.875 6.54688 2.02344 7.36719C2 7.50781 1.98828 7.71875 1.98828 8C1.98828 9.64062 2.57422 11.0586 3.74609 12.2539ZM2.69141 2.72656C4.16797 1.25 5.9375 0.511719 8 0.511719C10.0625 0.511719 11.8203 1.25 13.2734 2.72656C14.75 4.17969 15.4883 5.9375 15.4883 8C15.4883 10.0625 14.75 11.832 13.2734 13.3086C11.8203 14.7617 10.0625 15.4883 8 15.4883C5.9375 15.4883 4.16797 14.7617 2.69141 13.3086C1.23828 11.832 0.511719 10.0625 0.511719 8C0.511719 5.9375 1.23828 4.17969 2.69141 2.72656ZM9.58203 8.10547C9.76953 7.91797 9.99219 7.82422 10.25 7.82422C10.5078 7.82422 10.7305 7.91797 10.918 8.10547C11.1055 8.26953 11.1992 8.48047 11.1992 8.73828C11.1992 8.99609 11.1055 9.21875 10.918 9.40625C10.7305 9.59375 10.5078 9.6875 10.25 9.6875C9.99219 9.6875 9.76953 9.59375 9.58203 9.40625C9.39453 9.21875 9.30078 8.99609 9.30078 8.73828C9.30078 8.48047 9.39453 8.26953 9.58203 8.10547ZM5.08203 8.10547C5.26953 7.91797 5.49219 7.82422 5.75 7.82422C6.00781 7.82422 6.23047 7.91797 6.41797 8.10547C6.60547 8.26953 6.69922 8.48047 6.69922 8.73828C6.69922 8.99609 6.60547 9.21875 6.41797 9.40625C6.23047 9.59375 6.00781 9.6875 5.75 9.6875C5.49219 9.6875 5.26953 9.59375 5.08203 9.40625C4.89453 9.21875 4.80078 8.99609 4.80078 8.73828C4.80078 8.48047 4.89453 8.26953 5.08203 8.10547Z" fill="#1F2041" fill-opacity="0.5"/>
</svg>
