<svg width="24" height="14" viewBox="0 0 24 14" fill="none" xmlns="http://www.w3.org/2000/svg">
<path d="M17.9062 2.125C17.5 1.71875 17.0312 1.51562 16.5 1.51562C15.9688 1.51562 15.5 1.71875 15.0938 2.125C14.6875 2.5 14.4844 2.95313 14.4844 3.48438C14.4844 4.01562 14.6875 4.48438 15.0938 4.89062C15.5 5.29688 15.9688 5.5 16.5 5.5C17.0312 5.5 17.5 5.29688 17.9062 4.89062C18.3125 4.48438 18.5156 4.01562 18.5156 3.48438C18.5156 2.95313 18.3125 2.5 17.9062 2.125ZM18.9844 5.96875C18.2969 6.65625 17.4688 7 16.5 7C15.5312 7 14.7031 6.65625 14.0156 5.96875C13.3281 5.28125 12.9844 4.45312 12.9844 3.48438C12.9844 2.51562 13.3281 1.70312 14.0156 1.04688C14.7031 0.359375 15.5312 0.015625 16.5 0.015625C17.4688 0.015625 18.2969 0.359375 18.9844 1.04688C19.6719 1.70312 20.0156 2.51562 20.0156 3.48438C20.0156 4.45312 19.6719 5.28125 18.9844 5.96875ZM8.90625 2.125C8.5 1.71875 8.03125 1.51562 7.5 1.51562C6.96875 1.51562 6.5 1.71875 6.09375 2.125C5.6875 2.5 5.48438 2.95313 5.48438 3.48438C5.48438 4.01562 5.6875 4.48438 6.09375 4.89062C6.5 5.29688 6.96875 5.5 7.5 5.5C8.03125 5.5 8.5 5.29688 8.90625 4.89062C9.3125 4.48438 9.51562 4.01562 9.51562 3.48438C9.51562 2.95313 9.3125 2.5 8.90625 2.125ZM9.98438 5.96875C9.29688 6.65625 8.46875 7 7.5 7C6.53125 7 5.70312 6.65625 5.01562 5.96875C4.32812 5.28125 3.98438 4.45312 3.98438 3.48438C3.98438 2.51562 4.32812 1.70312 5.01562 1.04688C5.70312 0.359375 6.53125 0.015625 7.5 0.015625C8.46875 0.015625 9.29688 0.359375 9.98438 1.04688C10.6719 1.70312 11.0156 2.51562 11.0156 3.48438C11.0156 4.45312 10.6719 5.28125 9.98438 5.96875ZM21.5156 12.4844V11.2656C21.5156 10.9531 20.9531 10.5781 19.8281 10.1406C18.7344 9.70312 17.625 9.48438 16.5 9.48438C15.6875 9.48438 14.6875 9.67188 13.5 10.0469C13.8438 10.4531 14.0156 10.8594 14.0156 11.2656V12.4844H21.5156ZM12.5156 12.4844V11.2656C12.5156 10.9531 11.9531 10.5781 10.8281 10.1406C9.73438 9.70312 8.625 9.48438 7.5 9.48438C6.375 9.48438 5.25 9.70312 4.125 10.1406C3.03125 10.5781 2.48438 10.9531 2.48438 11.2656V12.4844H12.5156ZM16.5 7.98438C17.8438 7.98438 19.2656 8.29688 20.7656 8.92188C22.2656 9.51562 23.0156 10.2969 23.0156 11.2656V13.9844H0.984375V11.2656C0.984375 10.2969 1.73438 9.51562 3.23438 8.92188C4.73438 8.29688 6.15625 7.98438 7.5 7.98438C8.96875 7.98438 10.4688 8.32812 12 9.01562C13.5312 8.32812 15.0312 7.98438 16.5 7.98438Z" fill="#1F2041" fill-opacity="0.5"/>
</svg>
