<svg width="16" height="15" viewBox="0 0 16 15" fill="none" xmlns="http://www.w3.org/2000/svg">
<path d="M5.11609 14.8544L6.97937 8.84265L2.86609 8.84265L1.74109 10.3544L0.616088 10.3544L1.35437 7.71765L0.616088 5.11609L1.74109 5.11609L2.86609 6.59265L6.97937 6.59265L5.11609 0.616088L6.59265 0.616088L10.3544 6.59265L14.4677 6.59265C14.7723 6.59265 15.0302 6.69812 15.2411 6.90906C15.4755 7.14343 15.5927 7.41296 15.5927 7.71765C15.5927 8.02234 15.4755 8.28015 15.2411 8.49109C15.0302 8.72546 14.7723 8.84265 14.4677 8.84265L10.3544 8.84265L6.59265 14.8544L5.11609 14.8544Z" fill="#5CDF81"/>
</svg>
