<svg width="22" height="18" viewBox="0 0 22 18" fill="none" xmlns="http://www.w3.org/2000/svg">
<path d="M20.375 5.71875C20.75 5.9375 20.9844 6.25 21.0781 6.65625C21.1719 7.0625 21.1094 7.4375 20.8906 7.78125C20.7031 8.125 20.4062 8.35938 20 8.48438C16.125 9.51562 12.9062 10.375 10.3438 11.0625L5.04688 12.4688L3.45312 12.9375C3.23438 12.5625 2.35938 11.0625 0.828125 8.4375L2.28125 8.0625L4.25 9.5625L9.21875 8.25L5.09375 1.07812L7.01562 0.5625L13.9062 6.98438L19.25 5.57812C19.6562 5.45312 20.0312 5.5 20.375 5.71875ZM1.48438 15.9844H20.5156V18H1.48438V15.9844Z" fill="#1F2041" fill-opacity="0.5"/>
</svg>
