<svg width="20" height="16" viewBox="0 0 20 16" fill="none" xmlns="http://www.w3.org/2000/svg">
<path d="M16 0.984375L19.9844 5.01562H16.9844V12C16.9844 13.0938 16.5938 14.0312 15.8125 14.8125C15.0312 15.5938 14.0938 15.9844 13 15.9844C11.9062 15.9844 10.9688 15.5938 10.1875 14.8125C9.40625 14.0312 9.01562 13.0938 9.01562 12V5.01562C9.01562 4.48438 8.8125 4.01563 8.40625 3.60938C8 3.20312 7.53125 3 7 3C6.46875 3 6 3.20312 5.59375 3.60938C5.1875 4.01563 4.98438 4.48438 4.98438 5.01562V12H7.98438L4 15.9844L0.015625 12H3.01562V5.01562C3.01562 3.92188 3.40625 2.98438 4.1875 2.20312C4.96875 1.39063 5.90625 0.984375 7 0.984375C8.09375 0.984375 9.03125 1.39063 9.8125 2.20312C10.5938 2.98438 10.9844 3.92188 10.9844 5.01562V12C10.9844 12.5312 11.1875 13 11.5938 13.4062C12 13.8125 12.4688 14.0156 13 14.0156C13.5312 14.0156 14 13.8125 14.4062 13.4062C14.8125 13 15.0156 12.5312 15.0156 12V5.01562H12.0156L16 0.984375Z" fill="#1F2041" fill-opacity="0.5"/>
</svg>
